<?xml version="1.0" encoding="UTF-8"?>
<svg version="1.1" xmlns="http://www.w3.org/2000/svg" width="625" height="649">
<path d="M0 0 C3.3 0 6.6 0 10 0 C11.5912689 4.873261 12.21192221 8.80790596 12 14 C12.99 14 13.98 14 15 14 C15.12375 12.88625 15.2475 11.7725 15.375 10.625 C16 7 16 7 18 5 C22.64100213 4.65622206 24.76070385 4.88035192 29 7 C29 11.62 29 16.24 29 21 C29.66 21 30.32 21 31 21 C31 20.34 31 19.68 31 19 C32.65 19 34.3 19 36 19 C36 17.02 36 15.04 36 13 C38.78823655 11.9673198 39.8677274 11.95490707 42.75 12.9375 C43.86375 13.4634375 43.86375 13.4634375 45 14 C45 13.34 45 12.68 45 12 C45.66 12 46.32 12 47 12 C47 12.66 47 13.32 47 14 C48.98 14.495 48.98 14.495 51 15 C50.125 22.875 50.125 22.875 49 24 C48.92820036 25.51928038 48.91607993 27.04167482 48.9375 28.5625 C48.95103516 29.80193359 48.95103516 29.80193359 48.96484375 31.06640625 C48.97644531 31.70449219 48.98804688 32.34257813 49 33 C49.66 32.67 50.32 32.34 51 32 C57.47058824 31.64705882 57.47058824 31.64705882 61 34 C61.45375 33.34 61.9075 32.68 62.375 32 C62.91125 31.34 63.4475 30.68 64 30 C64.66 30 65.32 30 66 30 C66 29.34 66 28.68 66 28 C69 26 69 26 71.5625 26.3125 C74 27 74 27 76 28 C76 28.66 76 29.32 76 30 C76.66 30 77.32 30 78 30 C78 30.99 78 31.98 78 33 C78.83144531 32.6390625 79.66289062 32.278125 80.51953125 31.90625 C82.14955078 31.21015625 82.14955078 31.21015625 83.8125 30.5 C84.89144531 30.0359375 85.97039062 29.571875 87.08203125 29.09375 C90 28 90 28 93 28 C95.52490493 33.19833368 94.65084974 35.97088023 92.9375 41.3125 C92.628125 42.199375 92.31875 43.08625 92 44 C94.31 44 96.62 44 99 44 C99 43.34 99 42.68 99 42 C101.64 42 104.28 42 107 42 C106.67 44.31 106.34 46.62 106 49 C106.99 49 107.98 49 109 49 C109 48.34 109 47.68 109 47 C111.75 46.75 111.75 46.75 115 47 C115.54011719 47.66257813 116.08023437 48.32515625 116.63671875 49.0078125 C120.21812959 52.02685304 123.54458941 51.36184043 128.0625 51.125 C129.67802384 51.05603693 131.29394881 50.99577748 132.91015625 50.9453125 C133.97955444 50.89141357 133.97955444 50.89141357 135.07055664 50.83642578 C137 51 137 51 140 53 C142.24324837 58.66715377 142.21868269 63.96192797 142 70 C143.27875 69.938125 144.5575 69.87625 145.875 69.8125 C151.27423811 69.78674847 155.94238735 71.22614003 161 73 C161 73.66 161 74.32 161 75 C161.66 75 162.32 75 163 75 C164.125 76.6875 164.125 76.6875 165 79 C164.125 81.75 164.125 81.75 163 84 C162.34 84 161.68 84 161 84 C161 85.65 161 87.3 161 89 C164.3 89 167.6 89 171 89 C171 88.34 171 87.68 171 87 C174.24633524 84.8357765 175.24301443 84.62430144 179 85 C182.32901247 87.21934164 182.75023244 88.34683329 184 92 C184.721875 91.278125 185.44375 90.55625 186.1875 89.8125 C187.115625 88.884375 188.04375 87.95625 189 87 C189.825 86.05125 190.65 85.1025 191.5 84.125 C194 82 194 82 196.5625 81.75 C200.33362962 83.68391263 201.22045162 86.17726645 203 90 C203 90.99 203 91.98 203 93 C203.680625 92.773125 204.36125 92.54625 205.0625 92.3125 C209.23076701 91.86906734 211.43449057 92.84723959 215 95 C216.5 98.5625 216.5 98.5625 217 102 C216.67 102.66 216.34 103.32 216 104 C215.76931332 105.9537168 215.58856754 107.91351987 215.4375 109.875 C215.35371094 110.92429687 215.26992188 111.97359375 215.18359375 113.0546875 C215.03951278 115.36611415 215 117.68408712 215 120 C215.66 120.66 216.32 121.32 217 122 C216.67 122.99 216.34 123.98 216 125 C216.66 125 217.32 125 218 125 C218 125.66 218 126.32 218 127 C218.66 127 219.32 127 220 127 C220.66 127.99 221.32 128.98 222 130 C224.10044771 130.43173189 224.10044771 130.43173189 226.4375 130.4375 C230.74735575 130.78450932 230.74735575 130.78450932 233.125 132.8125 C234.16158013 135.40395033 233.77545586 136.39512363 233 139 C233.60328125 138.95359375 234.2065625 138.9071875 234.828125 138.859375 C241.29072561 138.56751562 241.29072561 138.56751562 244.5625 140.5625 C246.4844884 143.82152381 246.28577701 146.28489886 246 150 C245.34 150 244.68 150 244 150 C243.67 150.99 243.34 151.98 243 153 C241.35 153.33 239.7 153.66 238 154 C238.77479736 156.99152582 238.77479736 156.99152582 240 160 C240.99 160.33 241.98 160.66 243 161 C243 162.98 243 164.96 243 167 C242.21625 167.2475 241.4325 167.495 240.625 167.75 C237.67682892 169.15389099 237.0975223 170.00675737 236 173 C237.65 173.33 239.3 173.66 241 174 C241 173.34 241 172.68 241 172 C245.62 171.01 250.24 170.02 255 169 C255 170.32 255 171.64 255 173 C255.66 173 256.32 173 257 173 C257.226875 173.78375 257.45375 174.5675 257.6875 175.375 C258.74935407 178.23222853 258.74935407 178.23222853 261.5625 179 C264 180 264 180 265.0625 182.3125 C264.97650503 186.01028388 263.56560064 187.43439936 261 190 C260.34 190 259.68 190 259 190 C259 190.66 259 191.32 259 192 C257.515 192.99 257.515 192.99 256 194 C258.64 194.66 261.28 195.32 264 196 C264 197.32 264 198.64 264 200 C264.8971875 200.2165625 264.8971875 200.2165625 265.8125 200.4375 C267.56150404 200.8872439 269.28677023 201.42892341 271 202 C272.22159091 208.35227273 272.22159091 208.35227273 271.1875 211.375 C270 213 270 213 268 214 C266.94647157 216.30965848 265.94280904 218.6429774 265 221 C265.99 221 266.98 221 268 221 C271.27595256 224.01387635 271.72880829 227.67793637 272.47265625 231.87890625 C272.94292277 234.28007496 272.94292277 234.28007496 275 237 C275.36227306 242.43409593 274.96069798 246.84026848 273 252 C270 254 270 254 267 254 C267 256.31 267 258.62 267 261 C267.66 261 268.32 261 269 261 C271.36305501 263.43255663 272.8459521 265.11972629 273.4375 268.5 C273 271 273 271 271.625 273.25 C269.42048484 276.98071796 268.78264576 280.77371289 268 285 C270.64 285.66 273.28 286.32 276 287 C276 288.98 276 290.96 276 293 C275.01 293 274.02 293 273 293 C273.165 293.515625 273.33 294.03125 273.5 294.5625 C274.15934906 297.77682668 274.18175217 300.72846085 274 304 C273.34 304.66 272.68 305.32 272 306 C271.01 306 270.02 306 269 306 C268.22757731 307.83700789 268.22757731 307.83700789 268 310 C268.474375 310.433125 268.94875 310.86625 269.4375 311.3125 C271 313 271 313 271.1875 316.6875 C271.125625 317.780625 271.06375 318.87375 271 320 C271.99 320 272.98 320 274 320 C274 320.66 274 321.32 274 322 C274.66 322 275.32 322 276 322 C277.62062503 325.24125006 277.26791352 328.75449862 277.3125 332.3125 C277.34150391 333.07240234 277.37050781 333.83230469 277.40039062 334.61523438 C277.459082 339.81167853 276.62766493 342.06221659 273 346 C273.13149826 348.75124253 273.13149826 348.75124253 274 351 C274.66 351 275.32 351 276 351 C276.39455802 355.83333569 276.08192653 359.49818919 273.5546875 363.62109375 C270.39329051 366.42504635 266.03706402 366.05393024 262 366 C262.33 367.32 262.66 368.64 263 370 C263.598125 370.144375 264.19625 370.28875 264.8125 370.4375 C266.56150404 370.8872439 268.28677023 371.42892341 270 372 C270.33 372.99 270.66 373.98 271 375 C270.34 375 269.68 375 269 375 C269.0928125 376.3303125 269.0928125 376.3303125 269.1875 377.6875 C268.97935526 381.36472369 268.21793417 383.09962455 266 386 C265.34 386 264.68 386 264 386 C264 388.31 264 390.62 264 393 C261.69 393 259.38 393 257 393 C257 393.66 257 394.32 257 395 C257.63808594 395.06058594 258.27617188 395.12117188 258.93359375 395.18359375 C259.75988281 395.26738281 260.58617187 395.35117187 261.4375 395.4375 C262.26121094 395.51871094 263.08492187 395.59992188 263.93359375 395.68359375 C266 396 266 396 267 397 C267 398.65 267 400.3 267 402 C262.71 402 258.42 402 254 402 C254 404.64 254 407.28 254 410 C254.54140625 410.11214844 255.0828125 410.22429687 255.640625 410.33984375 C258.50028221 411.13997963 261.05743708 412.3123815 263.75 413.5625 C264.73484375 414.01753906 265.7196875 414.47257812 266.734375 414.94140625 C267.48203125 415.29074219 268.2296875 415.64007813 269 416 C268.67 417.216875 268.34 418.43375 268 419.6875 C267.18920194 422.8853329 266.89970558 425.69028419 267 429 C266 430 266 430 263.0625 430.1875 C260 430 260 430 258 428 C257.01 428.33 256.02 428.66 255 429 C255 429.66 255 430.32 255 431 C254.01 431 253.02 431 252 431 C251.855625 431.61875 251.71125 432.2375 251.5625 432.875 C251 435 251 435 250 437 C250.66 437 251.32 437 252 437 C252 438.65 252 440.3 252 442 C251.01 442.33 250.02 442.66 249 443 C251.475 444.485 251.475 444.485 254 446 C252.515 449.465 252.515 449.465 251 453 C250.01 453 249.02 453 248 453 C248.185625 453.53625 248.37125 454.0725 248.5625 454.625 C249.11419324 457.61990614 248.60597444 460.03745829 248 463 C246.02 463 244.04 463 242 463 C241.67 462.34 241.34 461.68 241 461 C240.01 460.67 239.02 460.34 238 460 C237.71125 460.5775 237.4225 461.155 237.125 461.75 C236.08333333 463.83333333 235.04166667 465.91666667 234 468 C234.66 468 235.32 468 236 468 C237.99027909 470.86600189 239.51947051 473.51616122 240 477 C239.67 477.66 239.34 478.32 239 479 C236.36 479 233.72 479 231 479 C230.855625 479.5775 230.71125 480.155 230.5625 480.75 C230.04166667 482.83333333 229.52083333 484.91666667 229 487 C229.66 487 230.32 487 231 487 C231.125 489.375 231.125 489.375 231 492 C229 494 229 494 226.8359375 494.1953125 C225.61777344 494.16050781 225.61777344 494.16050781 224.375 494.125 C223.55773437 494.10695313 222.74046875 494.08890625 221.8984375 494.0703125 C220.95871094 494.03550781 220.95871094 494.03550781 220 494 C220 494.66 220 495.32 220 496 C220.99 496.33 221.98 496.66 223 497 C223 497.66 223 498.32 223 499 C223.99 499.33 224.98 499.66 226 500 C226 500.66 226 501.32 226 502 C226.99 502.33 227.98 502.66 229 503 C229.1953125 509.0546875 229.1953125 509.0546875 229 511 C228.34 511.66 227.68 512.32 227 513 C226.63371323 514.99422795 226.29868656 516.99453311 226 519 C224.27904777 520.72095223 222.02836086 520.17199761 219.6875 520.1875 C218.23923828 520.20876953 218.23923828 520.20876953 216.76171875 520.23046875 C211.78072661 519.81479897 209.33629849 517.57460552 206 514 C206.08378906 514.62648438 206.16757812 515.25296875 206.25390625 515.8984375 C206.35574219 516.71570313 206.45757813 517.53296875 206.5625 518.375 C206.66691406 519.18710937 206.77132812 519.99921875 206.87890625 520.8359375 C207 523 207 523 206 525 C203.4375 525.625 203.4375 525.625 201 526 C200.67 526.99 200.34 527.98 200 529 C198.02 529 196.04 529 194 529 C193.67 531.64 193.34 534.28 193 537 C192.34 537 191.68 537 191 537 C191 538.98 191 540.96 191 543 C187.24928186 544.82177738 184.99362668 545.36624071 181 544 C179.1875 542.4375 179.1875 542.4375 178 541 C177.67 543.64 177.34 546.28 177 549 C175.56445975 549.50559908 174.1264798 550.0042749 172.6875 550.5 C171.88699219 550.7784375 171.08648438 551.056875 170.26171875 551.34375 C168 552 168 552 165 552 C165.350625 552.721875 165.70125 553.44375 166.0625 554.1875 C167.1158022 557.3474066 166.93597004 558.85173712 166 562 C165.67 562.66 165.34 563.32 165 564 C161.0832314 565.23098442 157.97610732 564.83220851 154 564 C154.0309375 565.60875 154.0309375 565.60875 154.0625 567.25 C153 571 153 571 150.9296875 572.35546875 C148.64382818 573.34791864 146.36929353 574.2293813 144 575 C144.639375 575.94875 145.27875 576.8975 145.9375 577.875 C148.86461245 582.31001886 149.47192431 584.62006289 149 590 C147.4375 592 147.4375 592 145 593 C141.77766197 592.76564814 138.81187355 592.18934635 135.671875 591.45703125 C132.63035684 590.93677157 129.77144226 590.90361052 126.6875 590.9375 C125.08455078 590.95103516 125.08455078 590.95103516 123.44921875 590.96484375 C122.64097656 590.97644531 121.83273437 590.98804688 121 591 C121 592.32 121 593.64 121 595 C117.7 595 114.4 595 111 595 C110.67 595.99 110.34 596.98 110 598 C109.01 598 108.02 598 107 598 C107 598.66 107 599.32 107 600 C106.01 600.33 105.02 600.66 104 601 C104.66 601.66 105.32 602.32 106 603 C106.34490322 607.05261287 106.30163882 608.54754176 104 612 C104.9738425 615.54124546 106.38661843 617.5054085 109 620 C109 620.66 109 621.32 109 622 C109.66 622 110.32 622 111 622 C111.3125 625.3125 111.3125 625.3125 111 629 C108.1932705 631.63662469 106.32479508 631.97100044 102.5 632.3125 C99.22342906 632.01994902 96.93873515 631.42484128 94 630 C94 629.34 94 628.68 94 628 C93.34 628 92.68 628 92 628 C92 627.34 92 626.68 92 626 C90.68 625.34 89.36 624.68 88 624 C88 623.34 88 622.68 88 622 C87.34 622 86.68 622 86 622 C84.95355934 620.36209288 83.9601817 618.68991979 83 617 C82.01755155 615.65368175 81.02323436 614.31558703 80 613 C79.8 615.15 79.8 615.15 81.5 617 C83 619 83 619 83 621 C83.66 621 84.32 621 85 621 C85.33 623.31 85.66 625.62 86 628 C85.01 628 84.02 628 83 628 C83 627.34 83 626.68 83 626 C80.50935112 625.31292445 78.62113708 625 76 625 C74.33333333 625 72.66666667 625 71 625 C71 626.65 71 628.3 71 630 C70.34 630 69.68 630 69 630 C68.67 630.99 68.34 631.98 68 633 C64.31282562 635.45811625 62.35654296 635.31118164 58 635 C57.01 634.34 56.02 633.68 55 633 C55.11859375 632.38511719 55.2371875 631.77023437 55.359375 631.13671875 C55.74584021 628.71358189 56.04788245 626.45506404 56 624 C54.23333021 621.85745428 54.23333021 621.85745428 52 621 C52.350625 621.61875 52.70125 622.2375 53.0625 622.875 C54.41103435 627.37011449 53.65959866 631.40954987 53 636 C53.66 636 54.32 636 55 636 C55 637.32 55 638.64 55 640 C54.01 640 53.02 640 52 640 C52 639.34 52 638.68 52 638 C51.34 637.814375 50.68 637.62875 50 637.4375 C45.68660782 635.37066625 42.48543481 632.23462189 39 629 C38.01 629.66 37.02 630.32 36 631 C34 630.0625 34 630.0625 32 628 C31.63524155 624.97465051 31.77106703 622.03336186 32 619 C30.35 619 28.7 619 27 619 C26.9175 620.0725 26.835 621.145 26.75 622.25 C26 626 26 626 24.375 628.4375 C21.08777689 630.60014678 18.8500178 630.49907638 15 630 C14.34 629.01 13.68 628.02 13 627 C12.01 627.33 11.02 627.66 10 628 C10 630.64 10 633.28 10 636 C10.66 636 11.32 636 12 636 C12 639.3 12 642.6 12 646 C11.01 646.33 10.02 646.66 9 647 C9 647.66 9 648.32 9 649 C2.59370576 649.20852314 -2.92972642 649.1583195 -9 647 C-9 646.34 -9 645.68 -9 645 C-10.32 645 -11.64 645 -13 645 C-13.185625 644.360625 -13.37125 643.72125 -13.5625 643.0625 C-14.94246056 640.57873787 -14.94246056 640.57873787 -18.625 640.25 C-20.295625 640.12625 -20.295625 640.12625 -22 640 C-22 640.66 -22 641.32 -22 642 C-26.87865115 641.5818299 -28.71332621 639.45965662 -32 636 C-32.99 635.67 -33.98 635.34 -35 635 C-35 635.66 -35 636.32 -35 637 C-36.32 637 -37.64 637 -39 637 C-39.33 637.99 -39.66 638.98 -40 640 C-45.53846154 640.12587413 -45.53846154 640.12587413 -48.0625 639.4375 C-50.59168692 638.86639328 -52.51188197 639.37797049 -55 640 C-55.33 639.34 -55.66 638.68 -56 638 C-60.90711046 639.44071264 -60.90711046 639.44071264 -64.35546875 642.98046875 C-65.32023085 644.94830481 -66.16889101 646.97209406 -67 649 C-70.3 649 -73.6 649 -77 649 C-77 648.34 -77 647.68 -77 647 C-77.598125 646.835 -78.19625 646.67 -78.8125 646.5 C-82.18527798 644.18723796 -82.8331548 640.80108663 -84 637 C-84.48198463 638.24891614 -84.96045677 639.49918808 -85.4375 640.75 C-85.70433594 641.44609375 -85.97117187 642.1421875 -86.24609375 642.859375 C-87.13653634 645.28120373 -87.13653634 645.28120373 -88 649 C-91.63 649 -95.26 649 -99 649 C-99 648.34 -99 647.68 -99 647 C-99.66 647 -100.32 647 -101 647 C-104.16127893 640.55099097 -104.02727278 635.93553069 -103.03125 628.85546875 C-102.69104759 625.98330686 -102.69104759 625.98330686 -104.46875 624.23828125 C-104.9740625 623.82964844 -105.479375 623.42101562 -106 623 C-106 622.34 -106 621.68 -106 621 C-106.66 621 -107.32 621 -108 621 C-108 621.99 -108 622.98 -108 624 C-109.32 624 -110.64 624 -112 624 C-112 623.01 -112 622.02 -112 621 C-113.32 620.34 -114.64 619.68 -116 619 C-115.67 618.34 -115.34 617.68 -115 617 C-116.65 617.66 -118.3 618.32 -120 619 C-120.07347656 619.90492188 -120.07347656 619.90492188 -120.1484375 620.828125 C-120.22320312 621.62734375 -120.29796875 622.4265625 -120.375 623.25 C-120.44460937 624.03890625 -120.51421875 624.8278125 -120.5859375 625.640625 C-121.02075114 628.11824237 -121.69227155 629.85835776 -123 632 C-124.875 633 -124.875 633 -127 633 C-129.25 631.25 -129.25 631.25 -131 629 C-131 628.01 -131 627.02 -131 626 C-131.99 626 -132.98 626 -134 626 C-134 626.66 -134 627.32 -134 628 C-135.9375 627.4375 -135.9375 627.4375 -138 626 C-139.02199956 621.75477106 -139.06678404 619.26713617 -138 615 C-142.95 614.67 -147.9 614.34 -153 614 C-153 614.66 -153 615.32 -153 616 C-156.75120606 619.14617282 -160.18896099 619.52043564 -164.91015625 619.35546875 C-167 619 -167 619 -169.5 617.25 C-170.95960411 615.06059384 -171.44770721 613.52780161 -172 611 C-172.51949219 611.49371094 -173.03898438 611.98742187 -173.57421875 612.49609375 C-174.27160156 613.13675781 -174.96898437 613.77742187 -175.6875 614.4375 C-176.71423828 615.39462891 -176.71423828 615.39462891 -177.76171875 616.37109375 C-180.22289422 618.16221098 -182.00816574 618.62798558 -185 619 C-186.11658501 614.31034294 -185.80619523 611.46236469 -184 607 C-185.65 606.34 -187.3 605.68 -189 605 C-189.33 602.69 -189.66 600.38 -190 598 C-190.66 598 -191.32 598 -192 598 C-192 598.66 -192 599.32 -192 600 C-195.63423209 602.32590854 -198.77088331 602.16265833 -203 602 C-203.66 600.68 -204.32 599.36 -205 598 C-205.99 598 -206.98 598 -208 598 C-208.64317031 590.92512658 -206.82735898 586.90506815 -203 581 C-203.99 581 -204.98 581 -206 581 C-206.33 580.01 -206.66 579.02 -207 578 C-211.77185212 577.86299077 -211.77185212 577.86299077 -216.4375 578.6875 C-222.16364115 579.3858099 -228.09493938 575.63198375 -233 573 C-234.89885096 571.10114904 -234.12367506 568.42752097 -234.1328125 565.91015625 C-234 564 -234 564 -233 562 C-233.99 561.67 -234.98 561.34 -236 561 C-236 559.68 -236 558.36 -236 557 C-239.3 557 -242.6 557 -246 557 C-246 556.34 -246 555.68 -246 555 C-246.66 555 -247.32 555 -248 555 C-248.25 549.375 -248.25 549.375 -246 546 C-246.66 546 -247.32 546 -248 546 C-248 545.34 -248 544.68 -248 544 C-251.3 543.34 -254.6 542.68 -258 542 C-258 541.01 -258 540.02 -258 539 C-258.66 539 -259.32 539 -260 539 C-260.226875 538.05125 -260.45375 537.1025 -260.6875 536.125 C-261.67099217 532.80010128 -261.67099217 532.80010128 -264.58203125 531.8046875 C-265.37996094 531.53914062 -266.17789063 531.27359375 -267 531 C-267.05423638 529.08364783 -267.09289963 527.16685075 -267.125 525.25 C-267.14820313 524.18265625 -267.17140625 523.1153125 -267.1953125 522.015625 C-267 519 -267 519 -265 515 C-269.62 515 -274.24 515 -279 515 C-279 514.34 -279 513.68 -279 513 C-279.66 513 -280.32 513 -281 513 C-281 511.35 -281 509.7 -281 508 C-280.34 508 -279.68 508 -279 508 C-279 505.69 -279 503.38 -279 501 C-279.66 501 -280.32 501 -281 501 C-281 500.01 -281 499.02 -281 498 C-281.70125 497.87625 -282.4025 497.7525 -283.125 497.625 C-286.17656387 496.96161655 -289.05340938 496.02788045 -292 495 C-291.9175 494.278125 -291.835 493.55625 -291.75 492.8125 C-291.74268926 489.84450894 -291.74268926 489.84450894 -294 487.625 C-296 485 -296 485 -296.5625 481.75 C-295.81690486 476.7793657 -293.66710878 473.20069632 -291 469 C-291.66 468.67 -292.32 468.34 -293 468 C-293 467.34 -293 466.68 -293 466 C-293.99 466 -294.98 466 -296 466 C-296 466.99 -296 467.98 -296 469 C-296.66 469 -297.32 469 -298 469 C-298.20625 469.598125 -298.4125 470.19625 -298.625 470.8125 C-300.59881991 473.95266804 -302.52633525 474.79757759 -306 476 C-309.375 475.1875 -309.375 475.1875 -312 474 C-312.57325451 469.30136033 -313 464.73607636 -313 460 C-313.226875 459.319375 -313.45375 458.63875 -313.6875 457.9375 C-314 456 -314 456 -312.6875 453.75 C-311.8521875 452.88375 -311.8521875 452.88375 -311 452 C-310.34 452 -309.68 452 -309 452 C-309.85467041 449.73702265 -309.85467041 449.73702265 -312.5 449 C-315 448 -315 448 -316 446 C-317.32 446 -318.64 446 -320 446 C-320 445.34 -320 444.68 -320 444 C-320.99 443.67 -321.98 443.34 -323 443 C-323 440.36 -323 437.72 -323 435 C-322.34 435 -321.68 435 -321 435 C-321 434.01 -321 433.02 -321 432 C-320.34 432 -319.68 432 -319 432 C-319 431.34 -319 430.68 -319 430 C-320.98 430 -322.96 430 -325 430 C-325 428.68 -325 427.36 -325 426 C-324.34 426 -323.68 426 -323 426 C-323.33 424.35 -323.66 422.7 -324 421 C-324.66 421 -325.32 421 -326 421 C-326 421.66 -326 422.32 -326 423 C-326.99 423 -327.98 423 -329 423 C-329 423.66 -329 424.32 -329 425 C-330.9914056 425.38133299 -332.99279077 425.71325582 -335 426 C-336 425 -336 425 -336.25 422.3125 C-335.96711865 418.56432206 -334.85017533 416.23780683 -333 413 C-333.66 412.34 -334.32 411.68 -335 411 C-335 409.68 -335 408.36 -335 407 C-334.34 407 -333.68 407 -333 407 C-333 405.68 -333 404.36 -333 403 C-333.66 403 -334.32 403 -335 403 C-334.938125 402.236875 -334.87625 401.47375 -334.8125 400.6875 C-334.68555968 397.9722027 -334.68555968 397.9722027 -336.46484375 396.7109375 C-338.67430644 394.2484829 -338.54424651 392.19394463 -338.75 388.9375 C-338.82734375 387.87402344 -338.9046875 386.81054688 -338.984375 385.71484375 C-339 383 -339 383 -338 381 C-337.34 381 -336.68 381 -336 381 C-335.01 379.02 -335.01 379.02 -334 377 C-335.485 375.515 -335.485 375.515 -337 374 C-336.01 373.01 -335.02 372.02 -334 371 C-335.32 370.34 -336.64 369.68 -338 369 C-338 368.34 -338 367.68 -338 367 C-338.66 367 -339.32 367 -340 367 C-340 366.34 -340 365.68 -340 365 C-340.66 365 -341.32 365 -342 365 C-342 363.35 -342 361.7 -342 360 C-341.34 360 -340.68 360 -340 360 C-340.27034634 357.56282742 -340.27034634 357.56282742 -341 355 C-341.99 354.34 -342.98 353.68 -344 353 C-344.8125 349.5 -344.8125 349.5 -345 346 C-342.77810176 343.77810176 -340.91517292 343.07401108 -338 342 C-338 341.34 -338 340.68 -338 340 C-338.66 340 -339.32 340 -340 340 C-340 339.34 -340 338.68 -340 338 C-340.66 338 -341.32 338 -342 338 C-344.29648649 335.4385343 -345 334.52032428 -345 331 C-345.66 331 -346.32 331 -347 331 C-347 328.69 -347 326.38 -347 324 C-346.34 324 -345.68 324 -345 324 C-345 323.34 -345 322.68 -345 322 C-344.34 322 -343.68 322 -343 322 C-343 321.34 -343 320.68 -343 320 C-342.34 320 -341.68 320 -341 320 C-340.93941406 319.37351562 -340.87882812 318.74703125 -340.81640625 318.1015625 C-340.73261719 317.28429687 -340.64882813 316.46703125 -340.5625 315.625 C-340.48128906 314.81289063 -340.40007812 314.00078125 -340.31640625 313.1640625 C-340 311 -340 311 -339 309 C-336.8203125 308.4375 -336.8203125 308.4375 -334.125 308 C-330.61979783 307.4277221 -329.02930724 307.01953816 -326 305 C-326.67546875 304.74605469 -327.3509375 304.49210937 -328.046875 304.23046875 C-328.93890625 303.88628906 -329.8309375 303.54210937 -330.75 303.1875 C-331.63171875 302.85105469 -332.5134375 302.51460938 -333.421875 302.16796875 C-335.96703895 301.01493236 -337.93186116 299.8766445 -340 298 C-340.25 295.3125 -340.25 295.3125 -340 293 C-340.99 293 -341.98 293 -343 293 C-343 292.34 -343 291.68 -343 291 C-343.66 291 -344.32 291 -345 291 C-345.19491452 289.54263913 -345.38069358 288.08405407 -345.5625 286.625 C-345.66691406 285.81289063 -345.77132813 285.00078125 -345.87890625 284.1640625 C-346 282 -346 282 -345 280 C-345.66 280 -346.32 280 -347 280 C-347.19573608 278.56359829 -347.38127816 277.12580496 -347.5625 275.6875 C-347.66691406 274.88699219 -347.77132813 274.08648437 -347.87890625 273.26171875 C-348 271 -348 271 -347 268 C-343.4913604 265.66090693 -342.12910567 265.58708943 -338 266 C-335.125 267.5 -335.125 267.5 -333 269 C-332.67 268.01 -332.34 267.02 -332 266 C-332.66 265.67 -333.32 265.34 -334 265 C-333.67 262.69 -333.34 260.38 -333 258 C-331.35 257.34 -329.7 256.68 -328 256 C-328 255.34 -328 254.68 -328 254 C-328.66 254 -329.32 254 -330 254 C-330.33 252.35 -330.66 250.7 -331 249 C-331.66 249 -332.32 249 -333 249 C-332.44855089 244.91927658 -332.08669204 244.08669204 -329 241 C-331.97 240.34 -334.94 239.68 -338 239 C-338 238.34 -338 237.68 -338 237 C-340.31 237 -342.62 237 -345 237 C-345 236.34 -345 235.68 -345 235 C-345.66 235 -346.32 235 -347 235 C-346.67 232.69 -346.34 230.38 -346 228 C-344.02 228 -342.04 228 -340 228 C-340 227.34 -340 226.68 -340 226 C-340.66 226 -341.32 226 -342 226 C-342.10020937 222.49267216 -341.70300682 219.42715826 -341 216 C-341 214.68 -341 213.36 -341 212 C-337.62182575 211.15545644 -335.32534757 210.89155081 -332 212 C-332 212.66 -332 213.32 -332 214 C-330.02 214.33 -328.04 214.66 -326 215 C-326.8971875 214.6596875 -326.8971875 214.6596875 -327.8125 214.3125 C-330.69421235 212.58347259 -331.67072428 211.07832272 -333 208 C-333.1875 205.125 -333.1875 205.125 -332 202 C-329.52028908 199.41609955 -326.8351118 197.18284234 -324 195 C-324.66 194.34 -325.32 193.68 -326 193 C-326.125 189.375 -326.125 189.375 -326 186 C-326.66 186 -327.32 186 -328 186 C-328 184.35 -328 182.7 -328 181 C-328.66 181 -329.32 181 -330 181 C-329.37240135 178.07120629 -328.41377341 175.63904371 -327 173 C-326.34 173 -325.68 173 -325 173 C-325.33 170.36 -325.66 167.72 -326 165 C-320.20843638 161.52506183 -313.53217065 161.88540051 -307 162 C-306.731875 161.195625 -306.46375 160.39125 -306.1875 159.5625 C-305.795625 158.716875 -305.40375 157.87125 -305 157 C-304.01 156.67 -303.02 156.34 -302 156 C-301.855625 155.21625 -301.71125 154.4325 -301.5625 153.625 C-301 151 -301 151 -300 149 C-300.66 149 -301.32 149 -302 149 C-302 148.34 -302 147.68 -302 147 C-302.99 146.67 -303.98 146.34 -305 146 C-307.1875 144.375 -307.1875 144.375 -309 142 C-309.3125 138.3125 -309.3125 138.3125 -309 135 C-308 134 -308 134 -304.9375 133.9375 C-303.968125 133.958125 -302.99875 133.97875 -302 134 C-302.020625 132.700625 -302.04125 131.40125 -302.0625 130.0625 C-302.08399454 128.70834367 -302.07148199 127.35243917 -302 126 C-301 125 -301 125 -297.8125 124.625 C-292.86136409 125.11199697 -291.49219634 126.59297918 -288 130 C-287.67 129.67 -287.34 129.34 -287 129 C-286.319375 128.46375 -285.63875 127.9275 -284.9375 127.375 C-282.33299815 124.18238482 -282.69176 122.00712004 -283 118 C-282.34 118 -281.68 118 -281 118 C-281 117.01 -281 116.02 -281 115 C-281.66 115 -282.32 115 -283 115 C-283.495 111.535 -283.495 111.535 -284 108 C-282.02 108.33 -280.04 108.66 -278 109 C-277.67 107.35 -277.34 105.7 -277 104 C-273.75728494 104.5590888 -272.06942576 105.4132178 -270 108 C-270 108.66 -270 109.32 -270 110 C-269.34 110 -268.68 110 -268 110 C-268 110.99 -268 111.98 -268 113 C-267.34 113 -266.68 113 -266 113 C-266.185625 111.72125 -266.37125 110.4425 -266.5625 109.125 C-267.125 105.25 -267.125 105.25 -266 103 C-266.185625 102.360625 -266.37125 101.72125 -266.5625 101.0625 C-266.706875 100.381875 -266.85125 99.70125 -267 99 C-266.01 97.515 -266.01 97.515 -265 96 C-261.62537285 96.54723683 -259.91765 97.0549 -257 99 C-257 99.66 -257 100.32 -257 101 C-256.01 101 -255.02 101 -254 101 C-253.505 99.515 -253.505 99.515 -253 98 C-252.484375 97.505 -251.96875 97.01 -251.4375 96.5 C-249.65404732 94.98527194 -249.65404732 94.98527194 -250 92 C-249.34 91.67 -248.68 91.34 -248 91 C-247.5359375 89.5459375 -247.5359375 89.5459375 -247.0625 88.0625 C-246 85 -246 85 -243 83 C-239.37316225 82.62801664 -237.12649899 83.14725986 -234 85 C-234 85.66 -234 86.32 -234 87 C-233.34 87 -232.68 87 -232 87 C-232 87.66 -232 88.32 -232 89 C-231.21625 89.226875 -230.4325 89.45375 -229.625 89.6875 C-227 91 -227 91 -225.6875 93.625 C-225.460625 94.40875 -225.23375 95.1925 -225 96 C-224.01 95.67 -223.02 95.34 -222 95 C-222 94.34 -222 93.68 -222 93 C-221.34 93 -220.68 93 -220 93 C-220.02320313 92.37351562 -220.04640625 91.74703125 -220.0703125 91.1015625 C-220.08835937 90.28429687 -220.10640625 89.46703125 -220.125 88.625 C-220.14820313 87.81289062 -220.17140625 87.00078125 -220.1953125 86.1640625 C-220 84 -220 84 -218 82 C-213.83028311 82.30886792 -210.6592063 83.03337811 -207 85 C-206.8312461 82.60429729 -206.66493164 80.20846637 -206.5 77.8125 C-206.45230469 77.13896484 -206.40460938 76.46542969 -206.35546875 75.77148438 C-206.10976179 72.17363248 -205.94398016 68.60627694 -206 65 C-206.66 65 -207.32 65 -208 65 C-208 60.71 -208 56.42 -208 52 C-205.23749964 50.61874982 -203.05268901 50.80920694 -200 51 C-199.34 51.66 -198.68 52.32 -198 53 C-196.06742145 53.36831081 -196.06742145 53.36831081 -193.8671875 53.4140625 C-193.06152344 53.45273437 -192.25585938 53.49140625 -191.42578125 53.53125 C-190.16314453 53.57765625 -190.16314453 53.57765625 -188.875 53.625 C-188.02550781 53.66367187 -187.17601562 53.70234375 -186.30078125 53.7421875 C-184.20088316 53.83656494 -182.10047109 53.91937586 -180 54 C-179.34 52.35 -178.68 50.7 -178 49 C-176.35 49 -174.7 49 -173 49 C-172.855625 48.401875 -172.71125 47.80375 -172.5625 47.1875 C-172.1127561 45.43849596 -171.57107659 43.71322977 -171 42 C-170.34 42 -169.68 42 -169 42 C-169 41.34 -169 40.68 -169 40 C-166.36 40 -163.72 40 -161 40 C-160.67 41.65 -160.34 43.3 -160 45 C-158.35 44.34 -156.7 43.68 -155 43 C-155.33 42.34 -155.66 41.68 -156 41 C-156.07033769 39.12620395 -156.0843022 37.24998898 -156.0625 35.375 C-156.05347656 34.37210938 -156.04445312 33.36921875 -156.03515625 32.3359375 C-156.01775391 31.17964844 -156.01775391 31.17964844 -156 30 C-154.93458984 29.69255859 -154.93458984 29.69255859 -153.84765625 29.37890625 C-152.92855469 29.10949219 -152.00945312 28.84007813 -151.0625 28.5625 C-150.14597656 28.29566406 -149.22945312 28.02882813 -148.28515625 27.75390625 C-146.0597507 27.20973949 -146.0597507 27.20973949 -145 26 C-140.45049584 25.73752861 -137.11560195 26.00455663 -133 28 C-133 26.35 -133 24.7 -133 23 C-129.7 23 -126.4 23 -123 23 C-123 23.66 -123 24.32 -123 25 C-120.12133744 25.13478935 -120.12133744 25.13478935 -117 24 C-115.25280657 21.49568941 -114.09995912 18.84048268 -113 16 C-112.34 16 -111.68 16 -111 16 C-111 15.01 -111 14.02 -111 13 C-110.34 13 -109.68 13 -109 13 C-109 12.01 -109 11.02 -109 10 C-106.64278543 10.45834728 -104.31257042 10.91208957 -102 11.5625 C-99.62784655 12.08140857 -97.42075428 12.06724317 -95 12 C-94.54625 13.134375 -94.0925 14.26875 -93.625 15.4375 C-92.42904194 19.04721692 -92.42904194 19.04721692 -90 20 C-89.67 18.68 -89.34 17.36 -89 16 C-88.34 16 -87.68 16 -87 16 C-87 15.34 -87 14.68 -87 14 C-84.42786866 12.38050989 -83.32330841 11.95591249 -80.25 12.375 C-79.13625 12.684375 -79.13625 12.684375 -78 13 C-78 13.99 -78 14.98 -78 16 C-78.66 16.33 -79.32 16.66 -80 17 C-80.33 17.99 -80.66 18.98 -81 20 C-80.34 20.33 -79.68 20.66 -79 21 C-79 20.34 -79 19.68 -79 19 C-77.02 19 -75.04 19 -73 19 C-73 19.66 -73 20.32 -73 21 C-72.01 21.33 -71.02 21.66 -70 22 C-69.3125 24.0625 -69.3125 24.0625 -69 26 C-65.53058454 25.54177532 -62.32604951 25.10868317 -59 24 C-59.20625 23.13375 -59.4125 22.2675 -59.625 21.375 C-60.12143182 16.90711366 -59.20554575 13.9034933 -56.8125 10.125 C-53.25490444 7.91683724 -49.54756564 8.65046799 -45.61328125 9.5390625 C-39.41749651 11.35489635 -39.41749651 11.35489635 -37.74609375 13.9375 C-36.85787676 16.39288518 -36.85602512 18.40845211 -37 21 C-36.34 21 -35.68 21 -35 21 C-34.690625 20.21625 -34.38125 19.4325 -34.0625 18.625 C-33 16 -33 16 -32 14 C-31.34 14 -30.68 14 -30 14 C-30 13.34 -30 12.68 -30 12 C-25.71 12 -21.42 12 -17 12 C-17 12.66 -17 13.32 -17 14 C-15.68 14 -14.36 14 -13 14 C-12.67 12.35 -12.34 10.7 -12 9 C-11.01 9 -10.02 9 -9 9 C-9 8.34 -9 7.68 -9 7 C-8.34 7 -7.68 7 -7 7 C-7 6.34 -7 5.68 -7 5 C-5.5459375 4.319375 -5.5459375 4.319375 -4.0625 3.625 C-0.92920418 2.34213779 -0.92920418 2.34213779 0 0 Z M104 584 C103.32645501 585.43429001 102.66140299 586.87257057 102 588.3125 C101.62875 589.11300781 101.2575 589.91351562 100.875 590.73828125 C99.81959333 593.06213959 99.81959333 593.06213959 100 596 C99.34 596 98.68 596 98 596 C98 596.66 98 597.32 98 598 C100.475 598.99 100.475 598.99 103 600 C103.061875 598.7625 103.12375 597.525 103.1875 596.25 C103.60356929 592.69449876 103.84255104 592.15360875 106.5625 589.5 C107.366875 589.005 108.17125 588.51 109 588 C108.67 587.01 108.34 586.02 108 585 C105.98491642 584.26676204 105.98491642 584.26676204 104 584 Z M48 614 C48.33 614.99 48.66 615.98 49 617 C49 616.01 49 615.02 49 614 C48.67 614 48.34 614 48 614 Z M50 617 C51 619 51 619 51 619 Z M76 617 C77 619 77 619 77 619 Z " fill="#000000" transform="translate(348,0)"/>
<path d="" fill="#000000" transform="translate(0,0)"/>
<path d="" fill="#000000" transform="translate(0,0)"/>
</svg>
